<?xml version="1.0" encoding="UTF-8"?>
<svg width="600px" height="120px" viewBox="0 0 600 120" version="1.1" xmlns="http://www.w3.org/2000/svg" xmlns:xlink="http://www.w3.org/1999/xlink">
    <title>Slice</title>
    <defs>
        <path d="M89,0 L89,108 L0,108 L0,0 L89,0 Z M8.34375,42.8275863 C3.73562413,42.8275863 0,46.5791312 0,51.2068965 C0,55.8346619 3.73562413,59.5862069 8.34375,59.5862069 C12.9518759,59.5862069 16.6875,55.8346619 16.6875,51.2068965 C16.6875,46.5791312 12.9518759,42.8275863 8.34375,42.8275863 Z" id="path-1"></path>
        <path d="M89,0 L89,108 L0,108 L0,0 L89,0 Z M8.34375,42.8275863 C3.73562413,42.8275863 0,46.5791312 0,51.2068965 C0,55.8346619 3.73562413,59.5862069 8.34375,59.5862069 C12.9518759,59.5862069 16.6875,55.8346619 16.6875,51.2068965 C16.6875,46.5791312 12.9518759,42.8275863 8.34375,42.8275863 Z" id="path-3"></path>
        <path d="M89,0 L89,108 L0,108 L0,0 L89,0 Z M8.34375,42.8275863 C3.73562413,42.8275863 0,46.5791312 0,51.2068965 C0,55.8346619 3.73562413,59.5862069 8.34375,59.5862069 C12.9518759,59.5862069 16.6875,55.8346619 16.6875,51.2068965 C16.6875,46.5791312 12.9518759,42.8275863 8.34375,42.8275863 Z" id="path-5"></path>
        <path d="M89,0 L89,108 L0,108 L0,0 L89,0 Z M8.34375,42.8275863 C3.73562413,42.8275863 0,46.5791312 0,51.2068965 C0,55.8346619 3.73562413,59.5862069 8.34375,59.5862069 C12.9518759,59.5862069 16.6875,55.8346619 16.6875,51.2068965 C16.6875,46.5791312 12.9518759,42.8275863 8.34375,42.8275863 Z" id="path-7"></path>
    </defs>
    <g id="Page-1" stroke="none" stroke-width="1" fill="none" fill-rule="evenodd">
        <g id="pulsar_logo" transform="translate(27.000000, 3.000000)">
            <g id="Pulsar-Logo-/-Small-Mark">
                <path d="M25.2018334,18.576 C33.0783334,18.576 38.8188334,20.4529655 44.4258334,24.6091035 C52.0353334,30.5081379 56.8413334,40.1611035 56.8413334,49.8140689 C56.8413334,59.3329655 52.4358334,68.4496552 44.8263334,74.6168276 C38.9523334,79.3092413 33.4788334,81.1862069 25.3353334,81.1862069 L25.3353334,81.1862069 L17.7258334,81.1862069 L17.7258334,108 L3.44133334,108 L3.44047506,66.84 L26.1363334,66.8408276 C35.3439069,66.8408276 42.477842,59.8124708 42.6856723,50.5006637 L42.6903334,50.0822069 C42.6903334,40.4292413 35.6148334,32.9213793 26.4033334,32.9213793 L26.4033334,32.9213793 L3.44047506,32.9213333 L3.44133334,18.576 L25.2018334,18.576 Z" id="P" fill="#260F8F" fill-rule="nonzero"></path>
                <g id="Group-12">
                    <g id="Oval-Clipped">
                        <mask id="mask-2" fill="white">
                            <use xlink:href="#path-1"></use>
                        </mask>
                        <g id="path-1"></g>
                        <ellipse id="Oval" stroke="#3A49DA" stroke-width="2.5" mask="url(#mask-2)" cx="38.0104166" cy="49.3448276" rx="28.7395834" ry="47.4827587"></ellipse>
                    </g>
                    <g id="Oval-Clipped">
                        <mask id="mask-4" fill="white">
                            <use xlink:href="#path-3"></use>
                        </mask>
                        <g id="path-1"></g>
                        <ellipse id="Oval" stroke="#3A49DA" stroke-width="2.5" mask="url(#mask-4)" cx="47.7447916" cy="49.8103448" rx="38.4739584" ry="38.6379311"></ellipse>
                    </g>
                    <g id="Oval-Clipped">
                        <mask id="mask-6" fill="white">
                            <use xlink:href="#path-5"></use>
                        </mask>
                        <g id="path-1"></g>
                        <ellipse id="Oval" stroke="#3A49DA" stroke-width="2.5" mask="url(#mask-6)" cx="27.8125" cy="50.2758621" rx="18.5416666" ry="18.6206896"></ellipse>
                    </g>
                    <g id="Oval-Clipped">
                        <mask id="mask-8" fill="white">
                            <use xlink:href="#path-7"></use>
                        </mask>
                        <g id="path-1"></g>
                        <ellipse id="Oval" stroke="#3A49DA" stroke-width="2.5" mask="url(#mask-8)" cx="34.3020834" cy="49.3448276" rx="25.03125" ry="29.7931035"></ellipse>
                    </g>
                </g>
                <ellipse id="Oval" fill="#260F8F" cx="8.34375" cy="51.2068965" rx="2.78125" ry="2.79310345"></ellipse>
            </g>
            <g id="Pulsar-Logo-/-Logotype" transform="translate(128.000000, 38.000000)" fill="#260F8F" fill-rule="nonzero">
                <path d="M9.52962841,0.596797671 C12.9789211,0.596797671 15.4928123,1.43231441 17.948241,3.28238719 C21.2806085,5.90829694 23.3852616,10.2052402 23.3852616,14.5021834 C23.3852616,18.7394469 21.4559963,22.797671 18.1236288,25.5429403 C15.5512749,27.6317322 13.1543088,28.4672489 9.58809099,28.4672489 L9.58809099,28.4672489 L6.2557235,28.4672489 L6.2557235,40.4032023 L0,40.4032023 L0,22.0815138 L9.93886652,22.0815138 C13.9072361,22.0815138 16.9960363,19.0511626 17.1795923,15.0038923 L17.1882274,14.6215429 C17.1882274,10.3245997 14.0897102,6.98253275 10.0557917,6.98253275 L10.0557917,6.98253275 L0,6.98253275 L0,0.596797671 L9.52962841,0.596797671 Z M50.1806143,41 C56.6114989,41 61.7562066,35.6885007 61.7562066,29.0043668 L61.7562066,0.596797671 L55.5007097,0.596797671 L55.5007097,29.7802038 C55.5007097,32.5254731 53.0452811,34.852984 50.1221517,34.852984 C47.1405597,34.852984 44.685131,32.3464338 44.685131,29.3027656 L44.685131,0.596797671 L38.3711716,0.596797671 L38.3711716,28.8253275 C38.3711716,35.3901019 43.8081922,41 50.1806143,41 Z M98.8994372,40.4032023 L98.8994372,33.9577875 L86.3884435,33.9577875 L86.3884435,0.596797671 L80.1914092,0.596797671 L80.1914092,40.4032023 L98.8994372,40.4032023 Z M124.993239,41 C132.417987,41 137.913471,36.1659389 137.913471,29.6011645 C137.913471,25.0655022 135.750355,21.4847162 131.716436,19.3959243 L126.688654,16.8296943 C122.53781,14.6812227 122.53781,14.6812227 122.070109,14.3828239 C120.842395,13.3682678 120.257769,12.3537118 120.257769,11.1004367 C120.257769,8.47452693 122.479347,6.38573508 125.285552,6.38573508 C127.74098,6.38573508 129.31947,7.51965066 130.781035,10.3842795 L136.334981,8.35516739 C133.879552,2.56622999 130.605647,0 125.636327,0 C119.38083,0 114.294585,5.01310044 114.294585,11.1601164 C114.294585,13.7263464 115.229987,16.0538574 117.159252,18.0232897 C118.445429,19.4556041 119.205443,19.9330422 121.894722,21.2459971 L126.630191,23.573508 C130.430259,25.4235808 132.008749,27.154294 132.008749,29.4221252 C132.008749,32.5254731 129.261008,34.6739447 125.227089,34.6739447 C121.602409,34.6739447 118.971592,32.8835517 118.503892,30.0189229 L112.59917,31.6899563 C113.709959,35.2110626 114.879211,37.0014556 117.33464,38.6724891 C119.497756,40.1644833 122.245497,41 124.993239,41 Z M157.401,40.4032023 L159.096415,33.2416303 L169.678143,33.2416303 L171.256633,40.4032023 L177.395205,40.4032023 L169.327368,0.596797671 L160.616442,0.596797671 L150.911653,40.4032023 L157.401,40.4032023 Z M168.333504,26.7962154 L160.616442,26.7962154 L164.767286,9.48908297 L168.333504,26.7962154 Z M198.753537,40.4032023 L198.753537,28.5269287 L203.664394,28.5269287 L209.276802,40.4032023 L216,40.4032023 L209.276802,26.2590975 C213.486109,23.2154294 215.532299,19.3362445 215.532299,14.5618632 C215.532299,9.7874818 213.252258,5.49053857 209.393728,2.86462882 C206.938299,1.13391557 205.067496,0.596797671 201.442816,0.596797671 L192.614965,0.596797671 L192.614965,40.4032023 L198.753537,40.4032023 Z M201.735129,21.9621543 L198.753537,21.9621543 L198.753537,6.98253275 L201.968979,6.98253275 C206.236748,6.98253275 209.510653,10.3245997 209.510653,14.6215429 C209.510653,16.8893741 208.282938,19.2765648 206.529061,20.5895197 C205.184421,21.5443959 203.781319,21.9621543 201.735129,21.9621543 Z" id="PULSAR"></path>
            </g>
        </g>
    </g>
</svg>