<?xml version="1.0" encoding="UTF-8"?>
<svg width="207px" height="81px" viewBox="0 0 207 81" version="1.1" xmlns="http://www.w3.org/2000/svg" xmlns:xlink="http://www.w3.org/1999/xlink">
    <!-- Generator: Sketch 63.1 (92452) - https://sketch.com -->
    <title>Pulsar Logo / Small Logotype</title>
    <desc>Created with Sketch.</desc>
    <defs>
        <path d="M67,0 L67,81 L0,81 L0,0 L67,0 Z M6.28125,32.1206897 C2.81221142,32.1206897 0,34.9343484 0,38.4051724 C0,41.8759964 2.81221142,44.6896552 6.28125,44.6896552 C9.75028858,44.6896552 12.5625,41.8759964 12.5625,38.4051724 C12.5625,34.9343484 9.75028858,32.1206897 6.28125,32.1206897 Z" id="path-1"></path>
        <linearGradient x1="-6.64045321%" y1="11.4237883%" x2="79.8806946%" y2="97.0563616%" id="linearGradient-3">
            <stop stop-color="#1A4A83" offset="0%"></stop>
            <stop stop-color="#00A0DF" offset="100%"></stop>
        </linearGradient>
        <linearGradient x1="-103.30054%" y1="11.4237883%" x2="130.873764%" y2="97.0563616%" id="linearGradient-4">
            <stop stop-color="#1A4A83" offset="0%"></stop>
            <stop stop-color="#00A0DF" offset="100%"></stop>
        </linearGradient>
        <linearGradient x1="-103.30054%" y1="11.4237883%" x2="130.873764%" y2="97.0563616%" id="linearGradient-5">
            <stop stop-color="#1A4A83" offset="0%"></stop>
            <stop stop-color="#00A0DF" offset="100%"></stop>
        </linearGradient>
        <linearGradient x1="-59.1368101%" y1="11.4237883%" x2="107.57517%" y2="97.0563616%" id="linearGradient-6">
            <stop stop-color="#1A4A83" offset="0%"></stop>
            <stop stop-color="#00A0DF" offset="100%"></stop>
        </linearGradient>
    </defs>
    <g id="Pulsar-Logo-/-Small-Logotype" stroke="none" stroke-width="1" fill="none" fill-rule="evenodd">
        <g id="Pulsar-Logo-/-Small-Mark">
            <path d="M18.9721667,13.932 C24.9016667,13.932 29.2231667,15.3397241 33.4441667,18.4568276 C39.1726667,22.8811034 42.7906667,30.1208276 42.7906667,37.3605517 C42.7906667,44.4997241 39.4741667,51.3372414 33.7456667,55.9626207 C29.3236667,59.481931 25.2031667,60.8896552 19.0726667,60.8896552 L19.0726667,60.8896552 L13.3441667,60.8896552 L13.3441667,81 L2.59066667,81 L2.59002055,50.13 L19.6756667,50.1306207 C26.6072108,50.1306207 31.9777013,44.8593531 32.1341578,37.8754978 L32.1376667,37.5616552 C32.1376667,30.321931 26.8111667,24.6910345 19.8766667,24.6910345 L19.8766667,24.6910345 L2.59002055,24.691 L2.59066667,13.932 Z" id="P" fill="#1A4A83" fill-rule="nonzero"></path>
            <g id="Group-12" stroke-width="1" fill-rule="evenodd">
                <mask id="mask-2" fill="white">
                    <use xlink:href="#path-1"></use>
                </mask>
                <g id="Rectangle-2"></g>
                <ellipse id="Oval" stroke="url(#linearGradient-3)" stroke-width="1.47276759" mask="url(#mask-2)" cx="28.6145833" cy="37.0086207" rx="21.6354167" ry="35.612069"></ellipse>
                <ellipse id="Oval" stroke="url(#linearGradient-4)" stroke-width="1.47276759" mask="url(#mask-2)" cx="35.9427083" cy="37.3577586" rx="28.9635417" ry="28.9784483"></ellipse>
                <ellipse id="Oval" stroke="url(#linearGradient-5)" stroke-width="1.47276759" mask="url(#mask-2)" cx="20.9375" cy="37.7068966" rx="13.9583333" ry="13.9655172"></ellipse>
                <ellipse id="Oval" stroke="url(#linearGradient-6)" stroke-width="1.47276759" mask="url(#mask-2)" cx="25.8229167" cy="37.0086207" rx="18.84375" ry="22.3448276"></ellipse>
            </g>
            <ellipse id="Oval" fill="#1A4A83" fill-rule="evenodd" cx="6.28125" cy="38.4051724" rx="2.09375" ry="2.09482759"></ellipse>
        </g>
        <g id="Pulsar-Logo-/-Logotype" transform="translate(85.000000, 32.000000)" fill="#1A4A83" fill-rule="nonzero">
            <path d="M5.379,0.33 C7.326,0.33 8.745,0.792 10.131,1.815 C12.012,3.267 13.2,5.643 13.2,8.019 C13.2,10.362 12.111,12.606 10.23,14.124 C8.778,15.279 7.425,15.741 5.412,15.741 L5.412,15.741 L3.531,15.741 L3.531,22.341 L2.07335234e-14,22.341 L-0.000127929688,12.21 L5.61,12.21 C7.85,12.21 9.59351515,10.5343636 9.6971258,8.29642057 L9.702,8.085 C9.702,5.709 7.953,3.861 5.676,3.861 L5.676,3.861 L-0.000127929688,3.861 L2.07335234e-14,0.33 Z M28.325,22.671 C31.955,22.671 34.859,19.734 34.859,16.038 L34.859,0.33 L31.328,0.33 L31.328,16.467 C31.328,17.985 29.942,19.272 28.292,19.272 C26.609,19.272 25.223,17.886 25.223,16.203 L25.223,0.33 L21.659,0.33 L21.659,15.939 C21.659,19.569 24.728,22.671 28.325,22.671 Z M55.825,22.341 L55.825,18.777 L48.763,18.777 L48.763,0.33 L45.265,0.33 L45.265,22.341 L55.825,22.341 Z M70.554,22.671 C74.745,22.671 77.847,19.998 77.847,16.368 C77.847,13.86 76.626,11.88 74.349,10.725 L71.511,9.306 C69.168,8.118 69.168,8.118 68.904,7.953 C68.211,7.392 67.881,6.831 67.881,6.138 C67.881,4.686 69.135,3.531 70.719,3.531 C72.105,3.531 72.996,4.158 73.821,5.742 L76.956,4.62 C75.57,1.419 73.722,-3.55271368e-15 70.917,-3.55271368e-15 C67.386,-3.55271368e-15 64.515,2.772 64.515,6.171 C64.515,7.59 65.043,8.877 66.132,9.966 C66.858,10.758 67.287,11.022 68.805,11.748 L71.478,13.035 C73.623,14.058 74.514,15.015 74.514,16.269 C74.514,17.985 72.963,19.173 70.686,19.173 C68.64,19.173 67.155,18.183 66.891,16.599 L63.558,17.523 C64.185,19.47 64.845,20.46 66.231,21.384 C67.452,22.209 69.003,22.671 70.554,22.671 Z M88.847,22.341 L89.804,18.381 L95.777,18.381 L96.668,22.341 L100.133,22.341 L95.579,0.33 L90.662,0.33 L85.184,22.341 L88.847,22.341 Z M95.018,14.817 L90.662,14.817 L93.005,5.247 L95.018,14.817 Z M112.189,22.341 L112.189,15.774 L114.961,15.774 L118.129,22.341 L121.924,22.341 L118.129,14.52 C120.505,12.837 121.66,10.692 121.66,8.052 C121.66,5.412 120.373,3.036 118.195,1.584 C116.809,0.627 115.753,0.33 113.707,0.33 L108.724,0.33 L108.724,22.341 L112.189,22.341 Z M113.872,12.144 L112.189,12.144 L112.189,3.861 L114.004,3.861 C116.413,3.861 118.261,5.709 118.261,8.085 C118.261,9.339 117.568,10.659 116.578,11.385 C115.819,11.913 115.027,12.144 113.872,12.144 Z" id="PULSAR"></path>
        </g>
    </g>
</svg>